<svg width="375" height="344" viewBox="0 0 375 344" fill="none" xmlns="http://www.w3.org/2000/svg">
<rect width="375" height="344" fill="white"/>
<rect x="34" y="33" width="310" height="107" rx="4" fill="#C4B7D7"/>
<rect x="108" y="172" width="160" height="12" rx="4" fill="#C4B7D7"/>
<rect x="45" y="207" width="286" height="5" rx="2.5" fill="#C4B7D7"/>
<rect x="45" y="216" width="286" height="5" rx="2.5" fill="#C4B7D7"/>
<rect x="45" y="225" width="286" height="5" rx="2.5" fill="#C4B7D7"/>
<rect x="45" y="234" width="286" height="5" rx="2.5" fill="#C4B7D7"/>
<rect x="45" y="244" width="286" height="5" rx="2.5" fill="#C4B7D7"/>
<rect x="45" y="253" width="286" height="5" rx="2.5" fill="#C4B7D7"/>
<rect x="45" y="262" width="136" height="5" rx="2.5" fill="#C4B7D7"/>
<rect x="249" y="308" width="19" height="18" rx="4" fill="#C4B7D7"/>
<rect x="249" y="308" width="19" height="18" rx="4" fill="#C4B7D7"/>
<rect x="321" y="308" width="19" height="18" rx="4" fill="#C4B7D7"/>
<rect x="285" y="308" width="19" height="18" rx="4" fill="#C4B7D7"/>
</svg>
